<svg width="24" height="30" viewBox="0 0 24 30" fill="none" xmlns="http://www.w3.org/2000/svg">
<g id="Vector">
<path fill-rule="evenodd" clip-rule="evenodd" d="M12 17.4251C14.9455 17.4251 17.3333 15.0246 17.3333 12.0635C17.3333 9.1024 14.9455 6.70195 12 6.70195C9.05448 6.70195 6.66667 9.1024 6.66667 12.0635C6.66667 15.0246 9.05448 17.4251 12 17.4251ZM12 14.0741C13.1045 14.0741 14 13.1739 14 12.0635C14 10.9531 13.1045 10.0529 12 10.0529C10.8955 10.0529 10 10.9531 10 12.0635C10 13.1739 10.8955 14.0741 12 14.0741Z" fill="black"/>
<path fill-rule="evenodd" clip-rule="evenodd" d="M24 12.0635C24 18.7159 16.9403 26.2033 13.6507 29.3311C12.7125 30.223 11.2875 30.223 10.3493 29.3311C7.05977 26.2033 0 18.7159 0 12.0635C0 5.40102 5.37259 0 12 0C18.6275 0 24 5.40102 24 12.0635ZM20.6667 12.0635C20.6667 14.3207 19.4067 17.1417 17.3371 20.0845C15.5949 22.5617 13.5371 24.7664 12 26.2777C10.4629 24.7664 8.40501 22.5617 6.66291 20.0845C4.59333 17.1417 3.33333 14.3207 3.33333 12.0635C3.33333 7.25171 7.21353 3.35097 12 3.35097C16.7865 3.35097 20.6667 7.25171 20.6667 12.0635Z" fill="black"/>
</g>
</svg>
