<svg width="24" height="18" viewBox="0 0 24 18" fill="none" xmlns="http://www.w3.org/2000/svg">
<path fill-rule="evenodd" clip-rule="evenodd" d="M14.3158 0.75C10.1373 0.75 6.75 4.13732 6.75 8.3158C6.75 12.4943 10.1373 15.8816 14.3158 15.8816C15.9532 15.8816 17.4704 15.3604 18.7085 14.4763L21.3322 17.1C21.8204 17.5882 22.6118 17.5882 23.1 17.1C23.5882 16.6118 23.5882 15.8204 23.1 15.3322L20.4763 12.7085C21.3604 11.4704 21.8816 9.9532 21.8816 8.3158C21.8816 4.13732 18.4943 0.75 14.3158 0.75ZM9.25 8.3158C9.25 5.51803 11.518 3.25 14.3158 3.25C17.1135 3.25 19.3816 5.51803 19.3816 8.3158C19.3816 9.715 18.8159 10.9798 17.8978 11.8978C16.9798 12.8159 15.715 13.3816 14.3158 13.3816C11.518 13.3816 9.25 11.1135 9.25 8.3158Z" fill="black"/>
<path d="M0 14C0 13.3096 0.559644 12.75 1.25 12.75H4.75C5.44036 12.75 6 13.3096 6 14C6 14.6904 5.44036 15.25 4.75 15.25H1.25C0.559644 15.25 0 14.6904 0 14Z" fill="black"/>
<path d="M0 8.5C0 7.8096 0.559644 7.25 1.25 7.25H3.75C4.44036 7.25 5 7.8096 5 8.5C5 9.1904 4.44036 9.75 3.75 9.75H1.25C0.559644 9.75 0 9.1904 0 8.5Z" fill="black"/>
<path d="M0 3C0 2.30964 0.559644 1.75 1.25 1.75H4.75C5.44036 1.75 6 2.30964 6 3C6 3.69036 5.44036 4.25 4.75 4.25H1.25C0.559644 4.25 0 3.69036 0 3Z" fill="black"/>
</svg>
